<svg width="18" height="18" viewBox="0 0 18 18" fill="none" xmlns="http://www.w3.org/2000/svg">
<g clip-path="url(#clip0_3_20)">
<path d="M7.40865 13.5915C7.6176 13.8006 7.8657 13.9664 8.13878 14.0796C8.41186 14.1928 8.70456 14.251 9.00015 14.251C9.29575 14.251 9.58845 14.1928 9.86152 14.0796C10.1346 13.9664 10.3827 13.8006 10.5917 13.5915L12.9999 11.1833C13.129 11.0404 13.1983 10.8535 13.1933 10.661C13.1884 10.4685 13.1096 10.2853 12.9734 10.1494C12.8371 10.0134 12.6537 9.93499 12.4612 9.93045C12.2688 9.92592 12.0819 9.99558 11.9394 10.125L9.7449 12.3203L9.75015 0.75C9.75015 0.551088 9.67113 0.360322 9.53048 0.21967C9.38983 0.0790176 9.19906 0 9.00015 0V0C8.80124 0 8.61047 0.0790176 8.46982 0.21967C8.32917 0.360322 8.25015 0.551088 8.25015 0.75L8.2434 12.306L6.0609 10.125C5.92017 9.98437 5.72934 9.9054 5.53039 9.90547C5.33143 9.90554 5.14066 9.98465 5.00003 10.1254C4.8594 10.2661 4.78043 10.4569 4.7805 10.6559C4.78057 10.8548 4.85967 11.0456 5.0004 11.1863L7.40865 13.5915Z" fill="white"/>
<path d="M17.25 11.9999C17.0511 11.9999 16.8603 12.0789 16.7197 12.2195C16.579 12.3602 16.5 12.551 16.5 12.7499V15.7499C16.5 15.9488 16.421 16.1395 16.2803 16.2802C16.1397 16.4209 15.9489 16.4999 15.75 16.4999H2.24999C2.05108 16.4999 1.86031 16.4209 1.71966 16.2802C1.57901 16.1395 1.49999 15.9488 1.49999 15.7499V12.7499C1.49999 12.551 1.42097 12.3602 1.28032 12.2195C1.13967 12.0789 0.948905 11.9999 0.749992 11.9999V11.9999C0.55108 11.9999 0.360315 12.0789 0.219662 12.2195C0.07901 12.3602 -7.62939e-06 12.551 -7.62939e-06 12.7499L-7.62939e-06 15.7499C-7.62939e-06 16.3466 0.237045 16.9189 0.659002 17.3409C1.08096 17.7628 1.65326 17.9999 2.24999 17.9999H15.75C16.3467 17.9999 16.919 17.7628 17.341 17.3409C17.7629 16.9189 18 16.3466 18 15.7499V12.7499C18 12.551 17.921 12.3602 17.7803 12.2195C17.6397 12.0789 17.4489 11.9999 17.25 11.9999Z" fill="white"/>
</g>
<defs>
<clipPath id="clip0_3_20">
<rect width="18" height="18" fill="white"/>
</clipPath>
</defs>
</svg>
