<svg width="44" height="44" viewBox="0 0 44 44" fill="none" xmlns="http://www.w3.org/2000/svg">
<path d="M34.8333 0H9.16667C6.73641 0.00291107 4.40652 0.969617 2.68807 2.68807C0.969617 4.40652 0.00291107 6.73641 0 9.16667V34.8333C0.00291107 37.2636 0.969617 39.5935 2.68807 41.3119C4.40652 43.0304 6.73641 43.9971 9.16667 44H34.8333C37.2636 43.9971 39.5935 43.0304 41.3119 41.3119C43.0304 39.5935 43.9971 37.2636 44 34.8333V9.16667C43.9971 6.73641 43.0304 4.40652 41.3119 2.68807C39.5935 0.969617 37.2636 0.00291107 34.8333 0V0ZM36.6667 20.1667H40.3333V23.8333H36.6667V20.1667ZM36.6667 16.5V12.8333H40.3333V16.5H36.6667ZM7.33333 23.8333H3.66667V20.1667H7.33333V23.8333ZM10.9065 23.8333V20.1667H32.9065V23.8333H10.9065ZM7.33333 16.5H3.66667V12.8333H7.33333V16.5ZM3.66667 27.5H7.33333V31.1667H3.66667V27.5ZM36.6667 27.5H40.3333V31.1667H36.6667V27.5ZM40.3333 9.16667H36.6667V4.004C37.7353 4.38182 38.6612 5.08059 39.3175 6.00472C39.9738 6.92885 40.3286 8.03319 40.3333 9.16667ZM7.33333 4.004V9.16667H3.66667C3.67137 8.03319 4.02615 6.92885 4.68249 6.00472C5.33883 5.08059 6.26467 4.38182 7.33333 4.004ZM3.66667 34.8333H7.33333V39.996C6.26467 39.6182 5.33883 38.9194 4.68249 37.9953C4.02615 37.0712 3.67137 35.9668 3.66667 34.8333ZM36.6667 39.996V34.8333H40.3333C40.3286 35.9668 39.9738 37.0712 39.3175 37.9953C38.6612 38.9194 37.7353 39.6182 36.6667 39.996Z" fill="#374957"/>
</svg>
