<svg width="25" height="25" viewBox="0 0 25 25" fill="none" xmlns="http://www.w3.org/2000/svg">
<path d="M23.739 22.8151L17.77 16.8461C19.3966 14.8567 20.1964 12.3182 20.0039 9.75568C19.8113 7.19315 18.6412 4.80265 16.7356 3.07864C14.83 1.35463 12.3346 0.429013 9.76565 0.493245C7.1967 0.557477 4.75071 1.60664 2.93362 3.42373C1.11653 5.24082 0.0673644 7.68681 0.00313259 10.2558C-0.0610992 12.8247 0.864519 15.3201 2.58853 17.2257C4.31254 19.1313 6.70304 20.3014 9.26557 20.494C11.8281 20.6865 14.3666 19.8867 16.356 18.2601L22.325 24.2291C22.5136 24.4113 22.7662 24.5121 23.0284 24.5098C23.2906 24.5075 23.5414 24.4024 23.7268 24.2169C23.9122 24.0315 24.0174 23.7807 24.0197 23.5185C24.022 23.2563 23.9212 23.0037 23.739 22.8151ZM10.032 18.5221C8.44976 18.5221 6.90304 18.0529 5.58745 17.1739C4.27185 16.2948 3.24647 15.0454 2.64097 13.5836C2.03547 12.1218 1.87704 10.5132 2.18573 8.9614C2.49441 7.40955 3.25633 5.98409 4.37515 4.86527C5.49397 3.74645 6.91944 2.98452 8.47129 2.67584C10.0231 2.36716 11.6317 2.52558 13.0935 3.13108C14.5553 3.73659 15.8047 4.76197 16.6838 6.07756C17.5628 7.39315 18.032 8.93987 18.032 10.5221C18.0296 12.6431 17.186 14.6766 15.6862 16.1763C14.1865 17.6761 12.153 18.5197 10.032 18.5221Z" fill="#C7C7C7"/>
</svg>
